<?xml version="1.0" encoding="UTF-8"?>
<svg version="1.1" xmlns="http://www.w3.org/2000/svg" width="5945" height="1283">
<path d="M0 0 C1.25651367 0.13422363 2.51302734 0.26844727 3.80761719 0.40673828 C83.60551864 9.06387363 163.65452149 34.25874496 229 82 C230.03511719 82.75410156 231.07023438 83.50820312 232.13671875 84.28515625 C235.11573669 86.49313425 238.06277339 88.73676542 241 91 C241.55929199 91.42780762 242.11858398 91.85561523 242.69482422 92.29638672 C249.83694974 97.76774743 256.721032 103.37652502 263.3046875 109.515625 C265.3852426 111.43335405 267.49037556 113.28364196 269.63671875 115.125 C274.45507939 119.32776924 278.98906495 123.80298767 283.50854492 128.32324219 C284.92668284 129.73919947 286.35296665 131.14698289 287.77929688 132.5546875 C293.96318727 138.72568584 299.54984946 145.17960032 305 152 C305.93496481 153.10167094 306.87630118 154.19801804 307.828125 155.28515625 C355.87761473 210.38707109 384.10084622 282.18728697 394 354 C394.10530029 354.74991211 394.21060059 355.49982422 394.3190918 356.27246094 C394.82357837 360.03776124 395.11525216 363.70184466 395.0625 367.5 C395.04896484 368.78390625 395.04896484 368.78390625 395.03515625 370.09375 C395.02355469 370.7228125 395.01195312 371.351875 395 372 C400.22582793 367.75859657 405.42737898 363.50854122 410.50732422 359.09326172 C424.86630534 346.69088902 440.51193076 336.34204279 457 327 C457.77424316 326.56059082 458.54848633 326.12118164 459.34619141 325.66845703 C496.87059712 304.61429186 539.40666987 292.21142624 582 287 C582.69623474 286.91386444 583.39246948 286.82772888 584.10980225 286.73898315 C599.89823262 284.84677047 615.6132092 284.6395915 631.5 284.6875 C632.78435944 284.68965515 634.06871887 284.6918103 635.39199829 284.69403076 C653.76266077 284.74354236 671.8429441 284.95391496 690 288 C691.85238281 288.30599121 691.85238281 288.30599121 693.7421875 288.61816406 C762.5453293 300.20668279 835.59630179 330.97719122 881.375 386.0546875 C884.1981819 389.43436199 887.21037223 392.64728891 890.1796875 395.8984375 C892 398 892 398 893 400 C893.33 367 893.66 334 894 300 C952.08 300 1010.16 300 1070 300 C1070.33 322.44 1070.66 344.88 1071 368 C1074.3 363.38 1077.6 358.76 1081 354 C1083.11684114 351.46412546 1085.16597959 349.05797554 1087.4375 346.6875 C1087.9847876 346.1090332 1088.5320752 345.53056641 1089.09594727 344.93457031 C1094.03270229 339.80543703 1099.30148524 335.26998298 1105 331 C1106.04414062 330.20207031 1107.08828125 329.40414063 1108.1640625 328.58203125 C1149.9268398 297.27519907 1205.38212757 285.7853641 1256.69158936 285.87974548 C1258.46736073 285.87930878 1260.24313205 285.87843204 1262.01890302 285.87715632 C1266.87167273 285.87493093 1271.72442018 285.87890575 1276.57718706 285.88393438 C1281.8203789 285.88826689 1287.06356957 285.88679047 1292.3067627 285.8860321 C1301.38205002 285.88550864 1310.45733015 285.88863687 1319.53261566 285.89426994 C1332.65383456 285.90240902 1345.77504999 285.90500263 1358.89627114 285.90625793 C1380.18638325 285.90844467 1401.47649153 285.9150945 1422.76660156 285.92456055 C1443.4436847 285.93374445 1464.1207668 285.94080903 1484.79785156 285.94506836 C1486.08612689 285.94533636 1487.37440221 285.94560435 1488.70171618 285.94588047 C1498.77739777 285.94795999 1508.85307938 285.94991688 1518.92876101 285.95183504 C1568.28584419 285.96126277 1617.64291777 285.98138249 1667 286 C1667 196.57 1667 107.14 1667 15 C1724.75 15 1782.5 15 1842 15 C1842 104.43 1842 193.86 1842 286 C1892.62148438 285.94779297 1892.62148438 285.94779297 1944.265625 285.89453125 C1965.64843796 285.87920225 1987.03124754 285.86461775 2008.4140625 285.85351562 C2018.93508763 285.84802493 2029.45611267 285.84239395 2039.97713754 285.83642202 C2041.40399963 285.83561248 2042.83086173 285.83480737 2044.25772384 285.83400673 C2066.95198607 285.82123604 2089.64622568 285.79874722 2112.34047427 285.77110834 C2136.35430427 285.7419159 2160.36812013 285.72399223 2184.38196731 285.71773452 C2198.74780219 285.71363271 2213.11357214 285.70071094 2227.47938702 285.6762506 C2237.35096607 285.66030592 2247.22251191 285.65561925 2257.09410289 285.65949587 C2262.77646379 285.66140392 2268.45871179 285.65862704 2274.14105225 285.64238358 C2296.95935972 285.58036206 2319.37318167 285.69655825 2342 289 C2342.78008155 289.10959348 2343.56016311 289.21918697 2344.3638835 289.33210146 C2348.3028098 289.8872278 2352.21456614 290.52059428 2356.125 291.25 C2357.26348389 291.45906982 2358.40196777 291.66813965 2359.57495117 291.88354492 C2386.31713814 296.98546633 2412.42995261 305.25912195 2437 317 C2437.6811084 317.32468262 2438.3622168 317.64936523 2439.06396484 317.98388672 C2443.7544493 320.23769759 2448.38987458 322.58643659 2453 325 C2453.63583008 325.3304834 2454.27166016 325.6609668 2454.92675781 326.00146484 C2478.22618062 338.23041101 2499.09760157 354.79232985 2518 373 C2518.55316895 373.53125488 2519.10633789 374.06250977 2519.67626953 374.60986328 C2528.23316477 382.87228549 2535.85317868 391.4709049 2543 401 C2543.33 367.67 2543.66 334.34 2544 300 C2602.08 300 2660.16 300 2720 300 C2720.495 333.66 2720.495 333.66 2721 368 C2724.96 362.72 2728.92 357.44 2733 352 C2735.85668182 348.78468713 2738.63060427 345.7417721 2741.6875 342.75 C2742.44659668 342.00113525 2743.20569336 341.25227051 2743.98779297 340.48071289 C2755.81199141 329.08833134 2769.48208652 320.53601616 2784 313 C2784.63244629 312.66548828 2785.26489258 312.33097656 2785.91650391 311.98632812 C2813.88019496 297.35938598 2845.80877387 290.30959649 2877 287 C2877.8232657 286.91170962 2878.6465314 286.82341925 2879.49474454 286.73245341 C2888.56221554 285.86763162 2897.59453118 285.86301186 2906.69158936 285.87974548 C2908.46736073 285.87930878 2910.24313205 285.87843204 2912.01890302 285.87715632 C2916.87167273 285.87493093 2921.72442018 285.87890575 2926.57718706 285.88393438 C2931.8203789 285.88826689 2937.06356957 285.88679047 2942.3067627 285.8860321 C2951.38205002 285.88550864 2960.45733015 285.88863687 2969.53261566 285.89426994 C2982.65383456 285.90240902 2995.77504999 285.90500263 3008.89627114 285.90625793 C3030.18638325 285.90844467 3051.47649153 285.9150945 3072.76660156 285.92456055 C3093.4436847 285.93374445 3114.1207668 285.94080903 3134.79785156 285.94506836 C3136.08612689 285.94533636 3137.37440221 285.94560435 3138.70171618 285.94588047 C3148.77739777 285.94795999 3158.85307938 285.94991688 3168.92876101 285.95183504 C3218.28584419 285.96126277 3267.64291777 285.98138249 3317 286 C3317 196.57 3317 107.14 3317 15 C3375.08 15 3433.16 15 3493 15 C3493 104.43 3493 193.86 3493 286 C3568.9 286 3644.8 286 3723 286 C3723.99 282.7 3724.98 279.4 3726 276 C3726.68113012 273.97914009 3727.37948743 271.96391826 3728.1027832 269.95776367 C3728.49288574 268.87169327 3728.88298828 267.78562286 3729.28491211 266.66664124 C3729.91151733 264.93479836 3729.91151733 264.93479836 3730.55078125 263.16796875 C3731.22028809 261.30760231 3731.22028809 261.30760231 3731.90332031 259.40965271 C3733.1168338 256.03784783 3734.33360661 252.66722771 3735.55099869 249.29682159 C3736.84021366 245.72575882 3738.12634599 242.15358603 3739.4128418 238.58154297 C3741.81742222 231.90652464 3744.22468183 225.2324762 3746.63317394 218.55886841 C3749.11670838 211.67720442 3751.59811787 204.79477533 3754.07921791 197.91223335 C3757.07757105 189.59500423 3760.07660959 181.2780227 3763.07739258 172.96166992 C3763.30374673 172.3343525 3763.53010088 171.70703508 3763.76331425 171.06070805 C3763.98859019 170.43638103 3764.21386614 169.812054 3764.44596863 169.16880798 C3769.63726412 154.78158352 3774.82113396 140.39170277 3780 126 C3787.75728624 104.44355115 3795.52815592 82.89201354 3803.30273438 61.34179688 C3803.74713364 60.10990128 3804.1915329 58.87800568 3804.6493988 57.60877991 C3805.46138195 55.35796796 3806.27343425 53.10718097 3807.08558655 50.85643005 C3811.39658562 38.9065107 3815.69698858 26.95280951 3820 15 C3909.76 15 3999.52 15 4092 15 C4113.47265459 74.89740491 4113.47265459 74.89740491 4119.89309692 92.89706421 C4126.76695288 112.16626142 4133.65673583 131.42971628 4140.5625 150.6875 C4140.95293488 151.77630463 4141.34336975 152.86510925 4141.74563599 153.98690796 C4144.49659723 161.65811565 4147.24821915 169.32908628 4150 177 C4153.14629479 185.77066787 4156.29228403 194.54144519 4159.4375 203.3125 C4159.82785431 204.40106293 4160.21820862 205.48962585 4160.62039185 206.61117554 C4167.18192693 224.91095288 4173.72335378 243.21786969 4180.25897217 261.5269165 C4188.29619468 284.04151116 4196.35903051 306.54686002 4204.43144226 329.04885864 C4207.28785389 337.01202895 4210.14058126 344.97651405 4212.9921875 352.94140625 C4214.23358566 356.40789511 4215.47507091 359.87435276 4216.71661377 363.34078979 C4217.52471309 365.59733129 4218.33261798 367.85394242 4219.14031982 370.11062622 C4223.01559125 380.9367829 4226.8984287 391.75953335 4230.859375 402.5546875 C4231.29492455 403.74342468 4231.29492455 403.74342468 4231.73927307 404.95617676 C4233.0532017 408.54066439 4234.37199257 412.12319706 4235.70092773 415.70214844 C4236.14380127 416.90645508 4236.5866748 418.11076172 4237.04296875 419.3515625 C4237.42477295 420.38104004 4237.80657715 421.41051758 4238.19995117 422.47119141 C4239 425 4239 425 4239 428 C4239.66 428 4240.32 428 4241 428 C4241.23589844 427.33097656 4241.47179688 426.66195313 4241.71484375 425.97265625 C4243.33476882 422.22565632 4245.3882797 418.88519807 4247.5625 415.4375 C4248.00650146 414.73149658 4248.45050293 414.02549316 4248.90795898 413.2980957 C4264.80056609 388.33045677 4286.23740191 363.77029075 4310 346 C4311.08608156 345.16164493 4312.17200921 344.32309045 4313.2578125 343.484375 C4366.09375258 303.21072436 4431.59214011 284.80058294 4497.5 284.75 C4498.30069916 284.74932526 4499.10139832 284.74865051 4499.92636108 284.74795532 C4538.496746 284.79900906 4577.15416063 290.8131426 4612 308 C4613.18335937 308.57838623 4613.18335937 308.57838623 4614.390625 309.16845703 C4632.49854203 318.10347421 4648.99309837 329.32433383 4663 344 C4663.804375 344.804375 4664.60875 345.60875 4665.4375 346.4375 C4666.7059375 347.7059375 4666.7059375 347.7059375 4668 349 C4668.65355469 349.64195312 4669.30710938 350.28390625 4669.98046875 350.9453125 C4670.68816406 351.64398438 4671.39585938 352.34265625 4672.125 353.0625 C4672.78757813 353.71347656 4673.45015625 354.36445313 4674.1328125 355.03515625 C4676 357 4676 357 4679 361 C4679.33 340.87 4679.66 320.74 4680 300 C4737.42 300 4794.84 300 4854 300 C4854.495 337.125 4854.495 337.125 4855 375 C4861.435 369.06 4861.435 369.06 4868 363 C4897.89495104 338.64115101 4930.77529901 319.35003854 4967 306 C4967.88864746 305.67161133 4968.77729492 305.34322266 4969.69287109 305.00488281 C4989.71620355 297.72021101 5010.44769883 292.74071681 5031.4375 289.1875 C5033.15634399 288.89528564 5033.15634399 288.89528564 5034.90991211 288.59716797 C5053.71276039 285.58648407 5072.36854835 284.65004134 5091.39916992 284.68432617 C5095.03400022 284.68747531 5098.6680044 284.66395909 5102.30273438 284.63867188 C5151.61901423 284.50495466 5201.42364355 294.59990422 5246 316 C5246.66080566 316.31259766 5247.32161133 316.62519531 5248.00244141 316.94726562 C5287.23360153 335.58375477 5324.40969158 363.38718866 5351 398 C5351.77214844 398.96679688 5352.54429688 399.93359375 5353.33984375 400.9296875 C5414.6939452 478.66426785 5424 568.79368358 5424 665 C5259.99 665 5095.98 665 4927 665 C4935.16249524 691.81962722 4943.7368746 714.10405178 4962 735 C4962.64453125 735.77730469 4963.2890625 736.55460938 4963.953125 737.35546875 C4969.04100723 743.36371992 4974.75198439 748.22966418 4981 753 C4981.53399414 753.40895508 4982.06798828 753.81791016 4982.61816406 754.23925781 C5022.88491505 784.80998226 5076.19414688 792.51526857 5125.42260742 786.47827148 C5153.69848025 782.58473464 5181.48740774 773.3446566 5203 754 C5203.77988281 753.31421875 5204.55976563 752.6284375 5205.36328125 751.921875 C5215.87122462 742.12172056 5221.62326057 729.75347886 5228 717 C5291.36 717 5354.72 717 5420 717 C5417.15354429 736.92518998 5407.79058668 756.05629515 5399 774 C5398.60232422 774.82516113 5398.20464844 775.65032227 5397.79492188 776.50048828 C5386.63200862 799.50156715 5371.65568516 820.81547824 5354.27734375 839.5390625 C5352.24097846 841.73959446 5350.26738147 843.97728703 5348.3125 846.25 C5342.68372968 852.70730427 5336.54094378 858.47948427 5330 864 C5329.49452637 864.43521973 5328.98905273 864.87043945 5328.46826172 865.31884766 C5311.26757076 880.07577889 5292.17482455 892.68551178 5272 903 C5271.21689453 903.40379883 5270.43378906 903.80759766 5269.62695312 904.22363281 C5216.75584721 931.2059832 5157.48625581 941.22089447 5098.625 941.25 C5097.39968567 941.25067474 5096.17437134 941.25134949 5094.91192627 941.25204468 C5075.75646977 941.23530942 5056.98548936 940.7008201 5038 938 C5036.81051758 937.83371094 5035.62103516 937.66742187 5034.39550781 937.49609375 C4996.03174867 931.93463605 4958.78174285 921.22446663 4924 904 C4923.15260254 903.58250488 4922.30520508 903.16500977 4921.43212891 902.73486328 C4897.66099383 890.91260415 4873.87994975 875.87994975 4855 857 C4854.99668985 857.68909203 4854.99337971 858.37818405 4854.98996925 859.08815765 C4854.90822198 875.97064404 4854.81596829 892.85303853 4854.71247292 909.73540497 C4854.66266538 917.90008229 4854.61622327 926.06475113 4854.578125 934.22949219 C4854.54485227 941.35815545 4854.50483647 948.48674601 4854.45720994 955.61532831 C4854.43228925 959.37869507 4854.4104135 963.1420158 4854.39665604 966.90544128 C4854.31397183 988.68407226 4853.70424253 1010.3899572 4850.25 1031.9375 C4850.08226074 1033.00049316 4849.91452148 1034.06348633 4849.74169922 1035.15869141 C4847.80132946 1046.9274935 4845.07070791 1058.47948379 4842 1070 C4841.76555176 1070.88381348 4841.53110352 1071.76762695 4841.28955078 1072.67822266 C4826.32758854 1128.03853883 4792.54910745 1182.88839264 4745.640625 1216.79931641 C4743.95162301 1218.03540447 4742.30344639 1219.31430699 4740.65625 1220.60546875 C4715.79668176 1239.83829955 4686.72619924 1253.26518681 4657 1263 C4656.02482422 1263.31952637 4655.04964844 1263.63905273 4654.04492188 1263.96826172 C4562.91427964 1293.27776384 4452.60098463 1287.61046272 4343.01367188 1238.57519531 C4307.51885634 1220.02265563 4272.95723151 1193.21265289 4249.21044922 1160.65917969 C4248.00161352 1159.00221168 4246.76998723 1157.36421498 4245.53515625 1155.7265625 C4218.86934648 1119.89997771 4195 1069.50615387 4195 1024 C4258.69 1024 4322.38 1024 4388 1024 C4390.31 1030.6 4392.62 1037.2 4395 1044 C4396.49765643 1047.39182159 4397.91827168 1050.53544882 4399.6875 1053.75 C4400.10555908 1054.52182617 4400.52361816 1055.29365234 4400.9543457 1056.08886719 C4418.69449347 1087.90689119 4447.92677888 1110.0691832 4482.640625 1120.56640625 C4525.12927022 1132.46228342 4572.35662549 1129.41488769 4611.375 1108.1875 C4643.5205152 1088.83227782 4664.03308927 1057.88565293 4673.23046875 1021.80737305 C4677.40799403 1004.42158884 4679.17599712 986.84048112 4679.11352539 968.9675293 C4679.11367142 967.84397034 4679.11381744 966.72041138 4679.1139679 965.56280518 C4679.11327889 961.89992243 4679.10553457 958.23709246 4679.09765625 954.57421875 C4679.09578847 952.0144707 4679.09436627 949.45472229 4679.09336853 946.89497375 C4679.08995846 940.87822351 4679.08210106 934.86149544 4679.07201904 928.84475404 C4679.0607796 921.98606087 4679.05532786 915.12736674 4679.05032361 908.26866663 C4679.0399159 894.17910089 4679.02236566 880.08955147 4679 866 C4677.57104496 867.58281927 4676.14279746 869.16627732 4674.71484375 870.75 C4673.91941162 871.63171875 4673.12397949 872.5134375 4672.30444336 873.421875 C4670.36342655 875.59341197 4668.45303507 877.78462347 4666.5625 880 C4633.4624977 917.81770378 4587.05027847 937.16832781 4537.49609375 940.68359375 C4497.89789246 942.89927503 4454.76500741 941.81722183 4416.26891655 931.48369241 C4406.19655437 928.85638378 4396.63487697 928.42027491 4386.27124023 928.45410156 C4384.46579102 928.44534115 4382.66034954 928.43484691 4380.85491943 928.42277527 C4376.01097608 928.39519654 4371.16728955 928.39150429 4366.32327914 928.39249516 C4361.23971899 928.38934158 4356.15627045 928.3636731 4351.07276917 928.34051514 C4341.47206796 928.30013737 4331.87143436 928.27965753 4322.27066141 928.26654124 C4311.32966539 928.25060908 4300.38878341 928.21216764 4289.44785392 928.17194796 C4266.96527435 928.08979872 4244.48269819 928.03555101 4222 928 C4220.12935868 922.53698828 4218.26007818 917.07351326 4216.39191818 911.60965252 C4215.75969495 909.76114276 4215.12713563 907.91274791 4214.49419785 906.06448269 C4209.9856319 892.8978279 4205.55517478 879.70749394 4201.203125 866.48828125 C4200.67784179 864.89431125 4200.67784179 864.89431125 4200.14194679 863.26813984 C4199.35196844 860.86721847 4198.56397725 858.4656598 4197.77709961 856.0637207 C4197.19624695 854.29292201 4196.61534294 852.52214017 4196.03439331 850.75137329 C4195.74238415 849.86112583 4195.45037498 848.97087837 4195.14951706 848.05365372 C4192.31961806 839.42992828 4189.48194724 830.80875443 4186.64453125 822.1875 C4186.32664202 821.22143137 4186.00875278 820.25536274 4185.68123055 819.2600193 C4181.06940001 805.24730605 4176.4299684 791.2440175 4171.76171875 777.25 C4171.47107418 776.37869131 4171.18042961 775.50738262 4170.88097763 774.60967064 C4168.12098502 766.33724199 4165.3574311 758.06600953 4162.58936501 749.79627895 C4157.36286243 734.17964682 4152.17051792 718.55238452 4147.07074165 702.89383507 C4146.52956395 701.23279607 4145.98746505 699.5720569 4145.44441032 697.91163063 C4144.69502752 695.61873283 4143.9495659 693.32459953 4143.20532227 691.0300293 C4142.98077677 690.34483656 4142.75623127 689.65964382 4142.52488136 688.95368767 C4141 684.22924246 4141 684.22924246 4141 682 C4017.91 682 3894.82 682 3768 682 C3767.01 685.63 3766.02 689.26 3765 693 C3764.18346708 695.5852343 3763.34268178 698.16298276 3762.47338867 700.73095703 C3762.11975722 701.78003455 3762.11975722 701.78003455 3761.7589817 702.85030556 C3760.981659 705.15383922 3760.19982278 707.4558133 3759.41796875 709.7578125 C3758.85417775 711.42570393 3758.29068412 713.09369591 3757.72746277 714.76177979 C3756.51837995 718.34073701 3755.30731882 721.91901613 3754.09466553 725.49676514 C3752.15782842 731.21115181 3750.22528299 736.92698401 3748.29345703 742.64306641 C3746.26610965 748.64117329 3744.23847829 754.63918335 3742.20935059 760.63668823 C3737.4877009 774.59299252 3732.77685104 788.55290172 3728.07421875 802.515625 C3727.75262409 803.4704458 3727.43102943 804.42526661 3727.09968948 805.40902138 C3725.81150012 809.23372759 3724.52334448 813.05844515 3723.23525047 816.88318348 C3714.15102577 843.85608505 3705.06022095 870.82681077 3695.92584229 897.78277588 C3695.1089366 900.19371261 3694.29247981 902.6048015 3693.47650146 905.01605225 C3692.38556147 908.23907283 3691.2927393 911.46144796 3690.19921875 914.68359375 C3689.72661369 916.08110619 3689.72661369 916.08110619 3689.24446106 917.5068512 C3688.9597142 918.34433395 3688.67496735 919.18181671 3688.3815918 920.04467773 C3688.01435249 921.12760353 3688.01435249 921.12760353 3687.63969421 922.23240662 C3687 924 3687 924 3686 926 C3564.23 926 3442.46 926 3317 926 C3317 765.29 3317 604.58 3317 439 C3269.15 439.33 3221.3 439.66 3172 440 C3174.64 447.92 3177.28 455.84 3180 464 C3183.24913478 476.47963131 3185.5551854 488.79338934 3187.25 501.5625 C3187.41338867 502.77945557 3187.57677734 503.99641113 3187.74511719 505.25024414 C3190.55117802 527.86476108 3190.14222994 550.66496996 3190.11606562 573.40914404 C3190.11169964 578.17978062 3190.11321186 582.95041606 3190.1139679 587.72105408 C3190.11448928 595.96295309 3190.11138306 604.2048441 3190.10573006 612.4467411 C3190.09756239 624.36277065 3190.09499447 636.27879637 3190.09374207 648.19482841 C3190.09155978 667.53328948 3190.08492211 686.87174631 3190.07543945 706.21020508 C3190.06624397 724.9826658 3190.05918509 743.75512537 3190.05493164 762.52758789 C3190.05466364 763.69878612 3190.05439565 764.86998436 3190.05411953 766.07667345 C3190.0520398 775.23780678 3190.05008298 784.39894013 3190.04816496 793.56007349 C3190.03875125 838.37338623 3190.01862823 883.18668832 3190 928 C3131.92 928 3073.84 928 3014 928 C3013.95101562 903.19457031 3013.90203125 878.38914062 3013.8515625 852.83203125 C3013.81617563 837.11392894 3013.78030732 821.39582994 3013.7421875 805.67773438 C3013.72218168 797.41821324 3013.70229759 789.15869183 3013.68261719 780.89916992 C3013.68014575 779.86407821 3013.67767431 778.82898649 3013.67512798 777.76252836 C3013.63548814 761.08627167 3013.6027109 744.41000827 3013.57250018 727.73373214 C3013.54130541 710.59923267 3013.50266216 693.46476147 3013.45720994 676.33029383 C3013.42943088 665.77090718 3013.40735239 655.21154104 3013.39273749 644.65212782 C3013.3821355 637.395599 3013.36425081 630.13911005 3013.34083296 622.88261137 C3013.32756318 618.70592413 3013.31731798 614.52929237 3013.31578636 610.35258293 C3013.49664365 579.29204247 3013.49664365 579.29204247 3008.75 548.6875 C3008.53384033 547.7792749 3008.31768066 546.8710498 3008.0949707 545.93530273 C3003.40542593 526.95811103 2995.31356065 510.20025618 2983 495 C2982.46117188 494.29617188 2981.92234375 493.59234375 2981.3671875 492.8671875 C2966.73298027 474.70312124 2943.05321445 463.91265293 2921 458.25 C2920.23010742 458.05116211 2919.46021484 457.85232422 2918.66699219 457.64746094 C2904.60370943 454.24684134 2890.69945617 453.6259315 2876.3125 453.6875 C2874.98697617 453.69023422 2874.98697617 453.69023422 2873.63467407 453.69302368 C2860.87969165 453.73734941 2848.46870183 454.06918898 2836 457 C2835.21512207 457.17692383 2834.43024414 457.35384766 2833.62158203 457.53613281 C2796.97221579 465.95509058 2765.04034261 484.83328629 2744.453125 516.98046875 C2735.24249529 531.80900601 2729.37240879 547.71897545 2725.25 564.625 C2725.05124268 565.43477295 2724.85248535 566.2445459 2724.64770508 567.07885742 C2721.76092794 579.54780435 2720.70209239 591.86371494 2720.7215271 604.63560486 C2720.71650852 606.04273643 2720.71062824 607.44986513 2720.70397437 608.85698992 C2720.68834902 612.67684683 2720.68475347 616.49662986 2720.68332577 620.31651485 C2720.67960078 624.453325 2720.66443027 628.59009604 2720.65071106 632.72688293 C2720.6285309 639.87864196 2720.61346229 647.0303869 2720.60334396 654.18217278 C2720.58870444 664.52221122 2720.56315312 674.86220055 2720.53501268 685.20221002 C2720.48964008 701.98171745 2720.45298605 718.76123199 2720.421875 735.54077148 C2720.39165029 751.83212533 2720.35725966 768.12346173 2720.31738281 784.41479492 C2720.3149013 785.43069098 2720.3124198 786.44658704 2720.30986309 787.49326783 C2720.29042122 795.43926873 2720.27073919 803.38526903 2720.25098133 811.33126915 C2720.15434319 850.22082485 2720.07863593 889.11039567 2720 928 C2661.92 928 2603.84 928 2544 928 C2543.505 884.935 2543.505 884.935 2543 841 C2539.04 845.29 2535.08 849.58 2531 854 C2527.70438712 857.08963708 2524.42894671 860.07375381 2521 863 C2519.68515625 864.14662109 2519.68515625 864.14662109 2518.34375 865.31640625 C2503.67290636 877.87126282 2487.79285356 888.5065688 2471 898 C2470.17693359 898.46647949 2469.35386719 898.93295898 2468.50585938 899.41357422 C2431.13198111 920.35027426 2389.29812092 932.22944267 2347 938 C2345.37795654 938.22647217 2345.37795654 938.22647217 2343.72314453 938.45751953 C2295.9519016 944.80465185 2246.15448563 942.46656825 2199 933 C2197.97487305 932.79568359 2196.94974609 932.59136719 2195.89355469 932.38085938 C2169.29756972 926.9177128 2142.28107718 918.20761339 2118 906 C2116.56237305 905.29520508 2116.56237305 905.29520508 2115.09570312 904.57617188 C2099.94139421 897.12744376 2085.74935284 888.80067506 2072 879 C2071.25363281 878.46987305 2070.50726562 877.93974609 2069.73828125 877.39355469 C2061.5666953 871.54360873 2053.91957404 865.35623335 2046.609375 858.4609375 C2044.36830641 856.34735485 2042.08887083 854.31595137 2039.75 852.3125 C2032.94359149 846.3938839 2026.79305053 839.9041943 2021 833 C2020.53964355 832.4534375 2020.07928711 831.906875 2019.60498047 831.34375 C2011.45256402 821.62366017 2003.87886972 811.66236964 1997 801 C1996.52739746 800.26894043 1996.05479492 799.53788086 1995.56787109 798.78466797 C1981.61594865 776.95072457 1971.04863166 753.59514047 1963 729 C1962.5656665 727.69240723 1962.5656665 727.69240723 1962.12255859 726.35839844 C1950.78123983 691.87384709 1946.77119076 655.65395015 1946.75 619.5 C1946.74898788 617.94181046 1946.74898788 617.94181046 1946.74795532 616.35214233 C1946.76573326 599.05221183 1947.47291338 582.13981089 1950 565 C1950.17160645 563.83597656 1950.34321289 562.67195312 1950.52001953 561.47265625 C1957.17385316 518.04137762 1971.47901217 478.25953392 1993 440 C1918.255 439.505 1918.255 439.505 1842 439 C1842 599.71 1842 760.42 1842 926 C1784.25 926 1726.5 926 1667 926 C1667 765.29 1667 604.58 1667 439 C1619.15 439.33 1571.3 439.66 1522 440 C1525.465 450.395 1525.465 450.395 1529 461 C1530.17430094 465.34782496 1531.28712278 469.61359932 1532.25 474 C1532.61484497 475.62156006 1532.61484497 475.62156006 1532.98706055 477.27587891 C1537.31452325 497.050685 1539.15930671 516.71596415 1539.12025452 536.93231201 C1539.12069129 538.62558739 1539.12156814 540.3188627 1539.12284368 542.01213765 C1539.12506787 546.63687631 1539.12109594 551.26159158 1539.11606562 555.88632727 C1539.11173134 560.88411804 1539.11320965 565.88190758 1539.1139679 570.87969971 C1539.11449125 579.5293687 1539.11136418 588.17903012 1539.10573006 596.8286972 C1539.09758946 609.33453433 1539.09499721 621.84036781 1539.09374207 634.34620729 C1539.09155557 654.63803349 1539.08490638 674.92985567 1539.07543945 695.22167969 C1539.06625493 714.92871073 1539.05917919 734.63574068 1539.05493164 754.34277344 C1539.05466892 755.55831495 1539.05440619 756.77385647 1539.05413551 758.02623257 C1539.05283043 764.12448602 1539.05156674 770.22273948 1539.05032361 776.32099295 C1539.03996352 826.88066554 1539.02153195 877.44033068 1539 928 C1481.25 928 1423.5 928 1364 928 C1363.93941406 903.83265625 1363.87882812 879.6653125 1363.81640625 854.765625 C1363.7759103 839.4531234 1363.73518088 824.14062295 1363.69335938 808.828125 C1363.6713958 800.78190124 1363.64949128 792.73567732 1363.62768555 784.68945312 C1363.62495036 783.68108808 1363.62221517 782.67272303 1363.6193971 781.63380146 C1363.57541319 765.38681643 1363.53475813 749.13982471 1363.49534739 732.89282802 C1363.45478096 716.20017807 1363.41060295 699.50754046 1363.36312145 682.81490874 C1363.33397112 672.52730107 1363.30758692 662.23969414 1363.28482103 651.95207033 C1363.26890665 644.88291567 1363.24946196 637.81377602 1363.22733159 630.74463812 C1363.2146941 626.67542595 1363.20352614 622.60622495 1363.19658089 618.53699875 C1363.49661313 588.1853294 1363.49661313 588.1853294 1360.375 558.0625 C1360.11831543 556.57073242 1360.11831543 556.57073242 1359.85644531 555.04882812 C1354.18320897 524.29031784 1339.36650897 495.74757579 1313.6875 477.1875 C1277.49224965 453.53301739 1230.70665619 448.20059828 1188.66430664 456.22900391 C1186.0961784 456.7745419 1183.54828644 457.36867929 1181 458 C1179.82026611 458.28883057 1179.82026611 458.28883057 1178.61669922 458.58349609 C1143.0127619 467.59934398 1112.17286282 487.57694874 1092.68359375 519.13134766 C1081.62179698 537.7341529 1075.19444055 558.659638 1072 580 C1071.74645044 581.62401859 1071.74645044 581.62401859 1071.48777866 583.28084564 C1070.72765535 589.45667602 1070.84645773 595.65656166 1070.84178162 601.86975098 C1070.83721027 603.27908896 1070.83220941 604.6884256 1070.82681805 606.09776068 C1070.81329274 609.95621805 1070.80583492 613.81466666 1070.79939139 617.67314148 C1070.79136269 621.83937603 1070.77767347 626.00559248 1070.76467896 630.17181396 C1070.74295116 637.38535493 1070.7247932 644.59889776 1070.70907402 651.81245422 C1070.68634166 662.24198917 1070.65820354 672.67150405 1070.62875474 683.10102195 C1070.58112005 700.02306826 1070.53784472 716.94512279 1070.49731445 733.8671875 C1070.45793853 750.30339192 1070.41649609 766.73958901 1070.37231445 783.17578125 C1070.36956495 784.1995883 1070.36681544 785.22339535 1070.36398262 786.27822685 C1070.3424629 794.28531545 1070.32082351 802.29240371 1070.29914629 810.29949188 C1070.19296196 849.53297979 1070.09721505 888.76648687 1070 928 C1011.92 928 953.84 928 894 928 C893.67 894.34 893.34 860.68 893 826 C888.545 831.445 888.545 831.445 884 837 C881.79440042 839.49285207 879.58982241 841.95176531 877.3125 844.375 C876.72146484 845.00438477 876.13042969 845.63376953 875.52148438 846.28222656 C865.15828938 857.19922193 854.03630958 866.97659908 842 876 C841.31953613 876.515625 840.63907227 877.03125 839.93798828 877.5625 C828.77618918 885.98764571 817.2592912 893.28501401 805 900 C804.18192871 900.45616699 803.36385742 900.91233398 802.52099609 901.38232422 C721.15304523 946.61840821 617.84019776 953.32434782 526.87695312 928.12988281 C507.18951608 922.4496258 488.35697806 915.08747689 470 906 C469.21737793 905.61489258 468.43475586 905.22978516 467.62841797 904.83300781 C451.48578508 896.80949254 436.14069345 887.18150499 422 876 C421.18917969 875.36964844 420.37835937 874.73929688 419.54296875 874.08984375 C417.00188151 872.09063618 414.49607006 870.05515842 412 868 C411.48743652 867.57912109 410.97487305 867.15824219 410.44677734 866.72460938 C398.078826 856.51475052 386.16267649 845.44090287 376 833 C375.59281738 832.51192871 375.18563477 832.02385742 374.76611328 831.52099609 C353.62149728 806.13406009 338.12928463 778.16941999 325 748 C324.34 748 323.68 748 323 748 C321.62245842 749.87070214 321.62245842 749.87070214 320.1875 752.375 C309.05155897 770.32135125 295.75168243 786.95749348 281.37890625 802.41015625 C279.44775091 804.51254704 277.57519392 806.6438149 275.7109375 808.8046875 C271.99517937 813.06460475 268.07001436 817.0781728 264.0625 821.0625 C263.39798828 821.73087891 262.73347656 822.39925781 262.04882812 823.08789062 C257.53048587 827.59746791 252.83824544 831.83814265 248 836 C246.9519312 836.92573352 245.90498105 837.85273572 244.859375 838.78125 C171.96293081 902.85665119 77.13930965 934.7412813 -92.96734619 941.12210083 C-184.51373791 934.9842717 -274.28450162 905.43597205 -392.75 808.4375 C-393.62527344 807.57527832 -394.50054687 806.71305664 -395.40234375 805.82470703 C-400.62296534 800.61099625 -405.42212474 795.21168719 -410.03466797 789.45336914 C-411.58679741 787.51581029 -413.16013581 785.61897621 -414.79296875 783.75 C-481.10257865 707.59671228 -514.45690415 604.58652176 -521.203125 486.73046875 C-521.21364647 484.76882278 -521.21364647 484.76882278 -521.22438049 482.76754761 C-521.2437545 478.57419333 -521.2488143 474.38089454 -521.25 470.1875 C-521.25044186 469.47244671 -521.25088371 468.75739342 -521.25133896 468.02067184 C-521.25840526 446.2059297 -520.91066135 424.65532043 -518 403 C-517.82623566 401.65467716 -517.65290707 400.30929797 -517.47998047 398.96386719 C-510.98916627 349.12897284 -498.04428019 300.74304906 -477 255 C-476.54399414 253.99904297 -476.08798828 252.99808594 -475.61816406 251.96679688 C-459.59498942 216.97315121 -438.73196578 184.4801482 -414 155 C-413.15767822 153.98800537 -412.31535645 152.97601074 -411.44750977 151.93334961 C-404.43811671 143.58442778 -397.04193643 135.72855369 -389.30883789 128.0480957 C-387.42811472 126.17816859 -385.55843181 124.29767362 -383.68945312 122.41601562 C-376.76281708 115.48180886 -369.6943804 109.0810818 -362 103 C-360.89782824 102.06562562 -359.80151464 101.12423231 -358.71484375 100.171875 C-337.86339797 81.98917966 -314.15408207 67.34261331 -290 54 C-289.24493164 53.57654297 -288.48986328 53.15308594 -287.71191406 52.71679688 C-232.75015872 21.98496912 -170.21129261 6.56390206 -108 0 C-106.87094238 -0.12004395 -105.74188477 -0.24008789 -104.57861328 -0.36376953 C-70.26006476 -3.81052092 -34.28586601 -3.75300767 0 0 Z M-235 222 C-236.34578125 223.05767578 -236.34578125 223.05767578 -237.71875 224.13671875 C-274.11990643 253.268104 -300.26368047 292.19373026 -316 336 C-316.29422852 336.79937988 -316.58845703 337.59875977 -316.89160156 338.42236328 C-326.41738978 364.4964876 -331.53493484 391.54794968 -335 419 C-335.13277344 420.02818848 -335.26554688 421.05637695 -335.40234375 422.11572266 C-339.44172966 455.12862519 -338.54205339 490.09458518 -334 523 C-333.86078125 524.04333496 -333.7215625 525.08666992 -333.578125 526.16162109 C-326.28946504 579.18156076 -306.50543711 632.58370747 -272 674 C-271.5472168 674.55429687 -271.09443359 675.10859375 -270.62792969 675.6796875 C-258.32027517 690.73683214 -244.71926992 704.51805917 -229 716 C-227.84894983 716.85806152 -226.69790823 717.71613451 -225.546875 718.57421875 C-217.35413506 724.61297189 -208.8290998 729.94713163 -200 735 C-198.31583984 735.98419922 -198.31583984 735.98419922 -196.59765625 736.98828125 C-129.60689069 774.59052199 -41.99264723 778.28158552 30.8671875 758.1484375 C66.36269333 747.88249151 98.4496335 730.98490994 125.75390625 706.0234375 C127.52725596 704.42588072 129.31683982 702.91616508 131.1875 701.4375 C134.85904348 698.25549565 137.86515024 694.70153414 141 691 C141.8146875 690.08476563 142.629375 689.16953125 143.46875 688.2265625 C171.34103064 656.66005819 196 607.8254862 196 565 C231.64 565 267.28 565 304 565 C306.475 550.15 306.475 550.15 309 535 C314.37709489 509.99025634 321.61810858 485.38062373 332.86572266 462.33007812 C334.0321579 459.93393994 335.16310156 457.5229433 336.29296875 455.109375 C345.35689883 436.05754012 356.94536807 418.54067545 370 402 C371.15048828 400.53046875 371.15048828 400.53046875 372.32421875 399.03125 C376.97143857 393.22431106 381.91718966 387.73542831 387.015625 382.32543945 C389.23664014 379.96194824 391.19568343 377.70647486 393 375 C327.99 375 262.98 375 196 375 C195.67 371.37 195.34 367.74 195 364 C194.3389332 360.60511913 193.63927449 357.288654 192.8125 353.9375 C192.48149292 352.58241333 192.48149292 352.58241333 192.14379883 351.19995117 C183.97566814 318.62164312 168.81822281 287.6242414 147 262 C146.37480469 261.26394531 145.74960937 260.52789062 145.10546875 259.76953125 C133.58307349 246.6168162 121.1879988 234.25365288 107 224 C105.93394531 223.22398437 104.86789062 222.44796875 103.76953125 221.6484375 C59.28225326 190.11178002 6.53614245 174.2388688 -47.5625 170.8125 C-48.24186615 170.76943726 -48.9212323 170.72637451 -49.6211853 170.68200684 C-114.39312504 166.68215188 -183.41312517 180.86391447 -235 222 Z M3932 188 C3922.64755613 215.26041511 3913.42809072 242.56272044 3904.31999397 269.90569258 C3902.63657321 274.95856387 3900.95163603 280.01092954 3899.26696777 285.06338501 C3896.44236721 293.53538875 3893.61900189 302.00780335 3890.79638672 310.48046875 C3887.5774149 320.14281894 3884.35628564 329.80444788 3881.13403273 339.46570432 C3878.32054018 347.90157801 3875.50826617 356.33785725 3872.69693041 364.77444994 C3871.03844776 369.75142185 3869.37961152 374.72827491 3867.71965027 379.70475388 C3860.27034022 402.03942444 3852.88525644 424.39331485 3845.62093353 446.78891563 C3841.24201802 460.28734401 3836.76942828 473.75195897 3832.21240234 487.19140625 C3831.32780403 489.80339064 3830.44865663 492.41715713 3829.5703125 495.03125 C3829.30799835 495.79957153 3829.0456842 496.56789307 3828.77542114 497.35949707 C3827.77016068 500.36050852 3827 502.81210085 3827 506 C3911.15 506 3995.3 506 4082 506 C4080.71726494 500.22769221 4079.4672706 495.03377767 4077.60839844 489.50048828 C4077.37700165 488.80746613 4077.14560486 488.11444397 4076.90719604 487.40042114 C4076.14543895 485.12229261 4075.37736607 482.8463462 4074.609375 480.5703125 C4074.06239809 478.93755839 4073.51587942 477.3046507 4072.9697876 475.67160034 C4071.52576639 471.35662335 4070.07665156 467.04337583 4068.62609863 462.73059082 C4066.07300059 455.1374631 4063.52824947 447.54153431 4060.984375 439.9453125 C4060.69817795 439.09123055 4060.4119809 438.23714859 4060.11711121 437.35718536 C4055.76429674 424.36173313 4051.49218192 411.34169668 4047.265625 398.3046875 C4042.00243669 382.07357929 4036.65256571 365.87274538 4031.25 349.6875 C4030.87337471 348.55907558 4030.49674942 347.43065117 4030.10871124 346.26803207 C4027.40797261 338.17796416 4024.7043098 330.08887474 4022 322 C4018.91468374 312.77149491 4015.83058216 303.54258662 4012.75 294.3125 C4012.37638525 293.19311413 4012.0027705 292.07372826 4011.61783409 290.9204216 C4005.62100748 272.94455077 3999.71098602 254.94168616 3993.8702116 236.91454124 C3993.6143821 236.12499361 3993.35855261 235.33544598 3993.0949707 234.52197266 C3992.84401799 233.74745569 3992.59306528 232.97293873 3992.33450794 232.17495155 C3987.01829767 208.63113639 3987.01829767 208.63113639 3977 188 C3975.58774954 187.9071274 3974.17091066 187.88253228 3972.75561523 187.88647461 C3971.85475693 187.88655014 3970.95389862 187.88662567 3970.02574158 187.88670349 C3968.5570034 187.89444542 3968.5570034 187.89444542 3967.05859375 187.90234375 C3966.06118668 187.9037587 3965.0637796 187.90517365 3964.03614807 187.90663147 C3960.83656876 187.91224886 3957.63705831 187.92480429 3954.4375 187.9375 C3952.27408955 187.94251276 3950.11067801 187.94707605 3947.94726562 187.95117188 C3942.63148529 187.96137491 3937.31575133 187.98014041 3932 188 Z M2156.796875 486.953125 C2145.48933968 499.83388262 2136.45539496 513.5875906 2129 529 C2128.27780273 530.48777954 2128.27780273 530.48777954 2127.54101562 532.00561523 C2126.87102539 533.42596069 2126.87102539 533.42596069 2126.1875 534.875 C2125.59001953 536.13957031 2125.59001953 536.13957031 2124.98046875 537.4296875 C2123.71405122 540.49496174 2123.71405122 540.49496174 2123 546 C2228.93 546 2334.86 546 2444 546 C2441.95258836 539.17529454 2439.92381571 533.087015 2436.875 526.75 C2436.28513306 525.51902588 2436.28513306 525.51902588 2435.68334961 524.26318359 C2426.49934516 505.50024239 2413.24112363 487.2079766 2397 474 C2396.06542969 473.22785156 2395.13085938 472.45570313 2394.16796875 471.66015625 C2385.99323884 465.05030689 2377.32253066 459.82880465 2368 455 C2367.38930664 454.67902344 2366.77861328 454.35804688 2366.14941406 454.02734375 C2300.67942189 420.02988991 2207.91536322 433.8101422 2156.796875 486.953125 Z M4964.0625 490.0625 C4952.1908322 503.48989337 4933 527.54335335 4933 546 C5038.93 546 5144.86 546 5254 546 C5251.97727703 539.25759011 5249.99830636 533.20668602 5247 526.9375 C5246.61263672 526.12603516 5246.22527344 525.31457031 5245.82617188 524.47851562 C5239.49079098 511.55674825 5231.46236159 499.82410366 5222 489 C5221.32195312 488.20078125 5220.64390625 487.4015625 5219.9453125 486.578125 C5195.0400564 457.69965684 5158.10014732 442.84443356 5121 438 C5120.27321045 437.90428711 5119.5464209 437.80857422 5118.79760742 437.70996094 C5061.59627737 431.0734411 5004.12724789 447.78248169 4964.0625 490.0625 Z M3493 439 C3493 597.73 3493 756.46 3493 920 C3494.87043011 917.19435484 3495.86457769 914.90848267 3496.99267578 911.75805664 C3497.38197769 910.67727844 3497.7712796 909.59650024 3498.17237854 908.48297119 C3498.80248085 906.7144278 3498.80248085 906.7144278 3499.4453125 904.91015625 C3500.12246459 903.02553783 3500.79961781 901.14091981 3501.47681904 899.25631905 C3502.19823599 897.24626003 3502.91765993 895.2354979 3503.63650513 893.22451782 C3505.13691966 889.02734184 3506.64292403 884.8321865 3508.15014648 880.63745117 C3508.65721688 879.22609148 3509.16428169 877.81472979 3509.67134094 876.40336609 C3510.04748252 875.35643365 3510.04748252 875.35643365 3510.43122292 874.28835106 C3511.19288932 872.16774588 3511.95402586 870.04695121 3512.7150116 867.92610168 C3516.79978017 856.54354166 3520.9206957 845.1744216 3525.0625 833.8125 C3526.34027312 830.30484377 3527.61754058 826.79700366 3528.89453125 823.2890625 C3529.21786438 822.40088837 3529.54119751 821.51271423 3529.87432861 820.59762573 C3534.3490041 808.30009576 3538.79754512 795.99308771 3543.25 783.6875 C3550.12717194 764.68067511 3557.02288019 745.68073151 3563.9375 726.6875 C3571.07722087 707.07523817 3578.17535711 687.44830114 3585.25 667.8125 C3591.81125581 649.60161412 3598.3871612 631.39630836 3605.01098633 613.20806885 C3610.32729998 598.61002242 3615.62227466 584.00434587 3620.90835571 569.39532471 C3628.38317493 548.73759923 3635.86817802 528.08361948 3643.375 507.4375 C3643.7867749 506.30482697 3644.1985498 505.17215393 3644.62280273 504.00515747 C3648.93022049 492.15858745 3653.24654398 480.31536685 3657.5859375 468.48046875 C3658.12261551 467.01627754 3658.12261551 467.01627754 3658.6701355 465.52250671 C3660.33938546 460.9691179 3662.01048872 456.41642531 3663.68505859 451.86499023 C3664.26403961 450.28761315 3664.84298102 448.71022153 3665.421875 447.1328125 C3665.68640472 446.41598801 3665.95093445 445.69916351 3666.22348022 444.96061707 C3667.46709634 442.05432265 3667.46709634 442.05432265 3668 439 C3610.25 439 3552.5 439 3493 439 Z M596 454 C594.80358887 454.24943359 594.80358887 454.24943359 593.58300781 454.50390625 C565.76945608 460.56741773 541.21181942 474.07046856 521 494 C520.15953125 494.82757813 519.3190625 495.65515625 518.453125 496.5078125 C492.09606868 523.95608453 478.00894033 564.34354763 477.796875 602.109375 C477.78981537 602.9501207 477.78275574 603.79086639 477.77548218 604.65708923 C477.42555834 629.99584415 477.42555834 629.99584415 481 655 C481.19867676 655.88026855 481.39735352 656.76053711 481.60205078 657.66748047 C487.36847003 682.41340995 497.56941547 705.49874105 514 725 C514.42506836 725.51014648 514.85013672 726.02029297 515.28808594 726.54589844 C539.54582356 755.33028687 576.00624239 771.26981429 613 775 C615.75014535 775.15680141 618.49580098 775.20899862 621.25 775.23828125 C622.01714325 775.24816574 622.7842865 775.25805023 623.57467651 775.26823425 C668.8325311 775.73063125 710.19103243 765.20452871 743.32421875 732.83203125 C775.49544796 700.11825693 786.99179221 654.18801999 787.00048828 609.49023438 C786.48399664 564.14770492 771.09710797 521.41290814 738.76147461 489.33959961 C732.65993782 483.4722928 726.14952922 478.5153859 719 474 C718.14390137 473.45738525 718.14390137 473.45738525 717.27050781 472.90380859 C681.9864099 450.90348697 636.29524491 445.59343556 596 454 Z M4518.73974609 451.12451172 C4475.21937981 453.74259257 4437.32603533 469.3673938 4408 502 C4377.2112118 537.64405508 4369.13586849 586.74636101 4372.22705078 632.34960938 C4375.93808196 673.94981076 4393.12747199 713.77395702 4424.96875 741.5859375 C4461.63673346 770.78801711 4506.07281594 778.8678538 4551.95703125 774.52734375 C4556.38498544 773.97727908 4560.68075701 773.11125674 4565 772 C4565.80453613 771.79600586 4566.60907227 771.59201172 4567.43798828 771.38183594 C4605.25413399 761.49422715 4637.80699386 739.82568633 4657.79174805 705.80786133 C4671.31328941 682.02250403 4680.02741611 654.91099901 4680.23828125 627.40625 C4680.246353 626.38309692 4680.25442474 625.35994385 4680.26274109 624.30578613 C4680.27653845 622.13730537 4680.28727994 619.96880329 4680.29516602 617.80029297 C4680.3065719 615.62867661 4680.3268375 613.45708566 4680.35668945 611.28564453 C4680.9321779 569.30392279 4668.8753349 528.25680582 4640 497 C4639.53368164 496.48985352 4639.06736328 495.97970703 4638.58691406 495.45410156 C4609.99886851 464.51151553 4570.65997528 453.18383289 4529.69921875 450.80859375 C4526.02978397 450.72893887 4522.40282226 450.92272204 4518.73974609 451.12451172 Z M2117 665 C2118.39781235 672.68796793 2119.8877106 679.40868189 2122.5625 686.625 C2122.91328613 687.57503906 2123.26407227 688.52507813 2123.62548828 689.50390625 C2137.43485961 725.87326246 2164.93725413 755.83147727 2200.36914062 772.08691406 C2247.561254 792.75923378 2305.68825737 796.24394944 2354.23046875 778.11328125 C2368.51697384 772.46320344 2381.53440858 765.33981583 2393 755 C2393.85335937 754.24074219 2394.70671875 753.48148438 2395.5859375 752.69921875 C2405.05057164 743.80246266 2412.66790576 732.29966454 2417 720 C2417 719.01 2417 718.02 2417 717 C2458.91 717 2500.82 717 2544 717 C2544 699.84 2544 682.68 2544 665 C2403.09 665 2262.18 665 2117 665 Z " fill="#9E2784" transform="translate(521,2)"/>
</svg>
